<?xml version="1.0" encoding="utf-8"?>
<!-- Generator: Adobe Illustrator 19.2.1, SVG Export Plug-In . SVG Version: 6.00 Build 0)  -->
<svg version="1.1" id="Layer_1" xmlns="http://www.w3.org/2000/svg" xmlns:xlink="http://www.w3.org/1999/xlink" x="0px" y="0px"
	 width="483.9px" height="44.5px" viewBox="0 0 483.9 44.5" enable-background="new 0 0 483.9 44.5" xml:space="preserve">
<g>
	<path fill="#12171A" d="M19.4,33.7c-1.1,0.5-2.3,0.8-3.5,1s-2.5,0.3-3.8,0.3c-1.9,0-3.6-0.3-5.1-0.8S4.3,33,3.2,32
		c-1-1-1.8-2.3-2.4-3.8S0,25,0,23c0-1.9,0.3-3.6,0.9-5.2s1.4-2.9,2.5-4s2.4-1.9,3.9-2.5s3.3-0.9,5.1-0.9c1.5,0,2.8,0.1,3.9,0.2
		s2,0.4,2.8,0.6v5.6c-1-0.5-2-0.9-3.2-1.1s-2.2-0.4-3.2-0.4c-1.1,0-2,0.2-2.9,0.5s-1.6,0.9-2.1,1.5s-1,1.4-1.3,2.3s-0.5,1.9-0.5,3
		c0,1.1,0.2,2.2,0.5,3.1s0.8,1.7,1.4,2.3s1.3,1.1,2.2,1.5s1.8,0.5,2.8,0.5c0.5,0,1,0,1.6-0.1s1.1-0.2,1.7-0.3s1.1-0.3,1.6-0.5
		s1-0.4,1.5-0.6V33.7z"/>
	<path fill="#12171A" d="M48,22.6c0,1.9-0.3,3.6-0.8,5.1s-1.3,2.9-2.3,4s-2.2,2-3.7,2.6s-3.1,0.9-5,0.9c-1.8,0-3.3-0.3-4.7-0.8
		s-2.6-1.3-3.5-2.3s-1.7-2.3-2.2-3.8S25,24.9,25,22.9c0-1.9,0.3-3.6,0.8-5.2s1.3-2.9,2.3-4s2.2-1.9,3.7-2.5s3.1-0.9,4.9-0.9
		c1.8,0,3.4,0.3,4.8,0.8s2.6,1.3,3.5,2.3s1.7,2.3,2.2,3.8S48,20.6,48,22.6z M42,22.7c0-2.5-0.5-4.3-1.4-5.6s-2.3-1.9-4.1-1.9
		c-1,0-1.9,0.2-2.6,0.6s-1.3,0.9-1.7,1.6s-0.8,1.5-1,2.4s-0.3,1.9-0.3,2.9c0,2.5,0.5,4.4,1.5,5.6s2.4,1.9,4.1,1.9
		c1,0,1.8-0.2,2.5-0.6s1.3-0.9,1.7-1.6s0.8-1.5,1-2.4S42,23.8,42,22.7z"/>
	<path fill="#12171A" d="M67.1,34.6V19.1c0-2.6-1-3.9-2.9-3.9c-1,0-1.9,0.4-2.8,1.2s-1.8,1.8-2.8,3.2v15.1h-5.7V10.8h4.9l0.1,3.5
		c0.5-0.6,1-1.2,1.5-1.7s1.1-0.9,1.7-1.3s1.3-0.6,2-0.8c0.7-0.2,1.5-0.3,2.4-0.3c1.2,0,2.3,0.2,3.2,0.6s1.7,1,2.3,1.7
		s1.1,1.6,1.4,2.6s0.5,2.2,0.5,3.4v16H67.1z"/>
	<path fill="#12171A" d="M93.5,34.6V19.1c0-2.6-1-3.9-2.9-3.9c-1,0-1.9,0.4-2.8,1.2S86,18.2,85,19.6v15.1h-5.7V10.8h4.9l0.1,3.5
		c0.5-0.6,1-1.2,1.5-1.7s1.1-0.9,1.7-1.3s1.3-0.6,2-0.8s1.5-0.3,2.4-0.3c1.2,0,2.3,0.2,3.2,0.6s1.7,1,2.3,1.7s1.1,1.6,1.4,2.6
		s0.5,2.2,0.5,3.4v16H93.5z"/>
	<path fill="#12171A" d="M126.4,20.9c0,0.4,0,0.9,0,1.5s-0.1,1.2-0.1,1.8h-15.7c0,1,0.2,2,0.5,2.8s0.8,1.5,1.4,2s1.3,0.9,2.1,1.2
		s1.7,0.4,2.7,0.4c1.2,0,2.4-0.1,3.7-0.3s2.7-0.5,4.1-0.9V34c-0.6,0.2-1.3,0.3-2,0.5s-1.5,0.3-2.2,0.4s-1.5,0.2-2.3,0.2
		c-0.8,0.1-1.5,0.1-2.2,0.1c-1.8,0-3.4-0.3-4.9-0.8s-2.7-1.3-3.7-2.3s-1.8-2.3-2.3-3.7s-0.8-3.2-0.8-5.2c0-1.9,0.3-3.7,0.8-5.3
		s1.3-2.9,2.2-4.1s2.1-2,3.5-2.6s2.9-0.9,4.6-0.9c1.7,0,3.2,0.3,4.5,0.8c1.3,0.5,2.4,1.3,3.3,2.2s1.5,2.1,2,3.4
		C126.2,17.9,126.4,19.4,126.4,20.9z M120.6,20.1c0-0.9-0.1-1.8-0.4-2.4s-0.6-1.3-1-1.7s-0.9-0.8-1.5-1s-1.2-0.3-1.8-0.3
		c-1.4,0-2.6,0.5-3.5,1.4s-1.5,2.3-1.6,4.1H120.6z"/>
	<path fill="#12171A" d="M151.4,33.7c-1.1,0.5-2.3,0.8-3.5,1s-2.5,0.3-3.8,0.3c-1.9,0-3.6-0.3-5.1-0.8s-2.8-1.3-3.8-2.3
		s-1.8-2.3-2.4-3.8S132,25,132,23c0-1.9,0.3-3.6,0.9-5.2s1.4-2.9,2.5-4s2.4-1.9,3.9-2.5s3.3-0.9,5.1-0.9c1.5,0,2.8,0.1,3.9,0.2
		s2,0.4,2.8,0.6v5.6c-1-0.5-2-0.9-3.2-1.1s-2.2-0.4-3.2-0.4c-1.1,0-2,0.2-2.9,0.5s-1.6,0.9-2.1,1.5s-1,1.4-1.3,2.3s-0.5,1.9-0.5,3
		c0,1.1,0.2,2.2,0.5,3.1s0.8,1.7,1.4,2.3s1.3,1.1,2.2,1.5s1.8,0.5,2.8,0.5c0.5,0,1,0,1.6-0.1s1.1-0.2,1.7-0.3s1.1-0.3,1.6-0.5
		s1-0.4,1.5-0.6V33.7z"/>
	<path fill="#12171A" d="M178.1,34.4c-1,0.2-2.1,0.4-3.1,0.6s-2,0.2-3,0.2c-1.6,0-2.9-0.2-4-0.5s-2.1-0.8-2.8-1.5s-1.3-1.5-1.6-2.6
		s-0.5-2.3-0.5-3.7V15.3h-6.4v-4.5h6.4V4.7l5.9-1.5v7.6h9.3v4.5h-9.3v11.2c0,1.4,0.3,2.4,0.9,3.1s1.7,1,3.1,1c0.9,0,1.9-0.1,2.7-0.2
		c0.9-0.2,1.7-0.3,2.4-0.5V34.4z"/>
	<path fill="#12171A" d="M205.6,20.9c0,0.4,0,0.9,0,1.5s-0.1,1.2-0.1,1.8h-15.7c0,1,0.2,2,0.5,2.8s0.8,1.5,1.4,2s1.3,0.9,2.1,1.2
		s1.7,0.4,2.7,0.4c1.2,0,2.4-0.1,3.7-0.3s2.7-0.5,4.1-0.9V34c-0.6,0.2-1.3,0.3-2,0.5s-1.5,0.3-2.2,0.4s-1.5,0.2-2.3,0.2
		s-1.5,0.1-2.2,0.1c-1.8,0-3.4-0.3-4.9-0.8s-2.7-1.3-3.7-2.3s-1.8-2.3-2.3-3.7s-0.8-3.2-0.8-5.2c0-1.9,0.3-3.7,0.8-5.3
		s1.3-2.9,2.2-4.1s2.1-2,3.5-2.6s2.9-0.9,4.6-0.9c1.7,0,3.2,0.3,4.5,0.8c1.3,0.5,2.4,1.3,3.3,2.2s1.5,2.1,2,3.4
		C205.4,17.9,205.6,19.4,205.6,20.9z M199.8,20.1c0-0.9-0.1-1.8-0.4-2.4s-0.6-1.3-1-1.7s-0.9-0.8-1.5-1s-1.2-0.3-1.8-0.3
		c-1.4,0-2.6,0.5-3.5,1.4s-1.5,2.3-1.6,4.1H199.8z"/>
	<path fill="#12171A" d="M226.2,34.6l-0.1-3.5c-0.5,0.6-1,1.2-1.5,1.7s-1.1,0.9-1.7,1.3s-1.3,0.6-2,0.8s-1.5,0.3-2.3,0.3
		c-1.4,0-2.7-0.3-3.8-0.8s-2-1.4-2.8-2.4s-1.3-2.3-1.7-3.8s-0.6-3.1-0.6-5c0-2.2,0.3-4.1,0.9-5.7s1.5-2.9,2.6-4
		c1.1-1.1,2.4-1.8,3.9-2.3s3.1-0.8,4.9-0.8c0.6,0,1.2,0,1.8,0.1s1.1,0.2,1.6,0.3V1.5h5.7v33.1H226.2z M215.8,22.9
		c0,1.3,0.1,2.4,0.3,3.4s0.4,1.7,0.8,2.3s0.8,1,1.3,1.3s1.1,0.4,1.8,0.4c1,0,1.9-0.4,2.8-1.2s1.8-1.9,2.8-3.2V15.5
		c-0.5-0.2-1-0.3-1.7-0.4s-1.3-0.2-2-0.2c-0.9,0-1.8,0.2-2.5,0.6s-1.4,0.9-1.9,1.6s-0.9,1.5-1.2,2.5S215.8,21.7,215.8,22.9z"/>
	<path fill="#12171A" d="M252.2,44.8c-3.8-3.2-6.6-6.7-8.5-10.4s-2.8-7.7-2.8-11.9c0-2.4,0.3-4.6,0.8-6.7s1.4-4.1,2.4-6
		s2.2-3.6,3.7-5.2s3-3.2,4.7-4.6l3.3,3.3c-3,2.7-5.3,5.7-6.9,8.9s-2.3,6.5-2.3,10c0,3.5,0.8,7,2.3,10.2s3.8,6.3,6.9,9L252.2,44.8z"
		/>
	<path fill="#3AA148" d="M279,34.6l-0.1-3.5c-0.5,0.6-1,1.2-1.5,1.7s-1.1,0.9-1.7,1.3s-1.3,0.6-2,0.8s-1.5,0.3-2.3,0.3
		c-1.4,0-2.7-0.3-3.8-0.8s-2-1.4-2.8-2.4s-1.3-2.3-1.7-3.8s-0.6-3.1-0.6-5c0-2.2,0.3-4.1,0.9-5.7s1.5-2.9,2.6-4s2.4-1.8,3.9-2.3
		s3.1-0.8,4.9-0.8c0.6,0,1.2,0,1.8,0.1s1.1,0.2,1.6,0.3V1.5h5.7v33.1H279z M268.6,22.9c0,1.3,0.1,2.4,0.3,3.4s0.4,1.7,0.8,2.3
		s0.8,1,1.3,1.3s1.1,0.4,1.8,0.4c1,0,1.9-0.4,2.8-1.2s1.8-1.9,2.8-3.2V15.5c-0.5-0.2-1-0.3-1.7-0.4s-1.3-0.2-2-0.2
		c-0.9,0-1.8,0.2-2.5,0.6s-1.4,0.9-1.9,1.6s-0.9,1.5-1.2,2.5S268.6,21.7,268.6,22.9z"/>
	<path fill="#3AA148" d="M298.1,15.3h-6.7v-4.5H304v19.4h6.9v4.5h-20.3v-4.5h7.5V15.3z M304.5,4.3c0,0.5-0.1,1-0.3,1.5
		s-0.4,0.8-0.8,1.2s-0.7,0.6-1.2,0.8S301.3,8,300.7,8s-1-0.1-1.5-0.3S298.4,7.3,298,7s-0.6-0.7-0.8-1.2S297,4.8,297,4.3
		s0.1-1,0.3-1.5s0.4-0.9,0.8-1.2s0.7-0.6,1.2-0.8s1-0.3,1.5-0.3s1,0.1,1.5,0.3s0.8,0.5,1.2,0.8s0.6,0.7,0.8,1.2S304.5,3.8,304.5,4.3
		z"/>
	<path fill="#3AA148" d="M334.7,15c0.4,0.5,0.7,1.1,0.9,1.7s0.3,1.2,0.3,1.8c0,1.3-0.2,2.5-0.7,3.5s-1.1,1.9-1.9,2.6s-1.8,1.2-3,1.6
		s-2.4,0.5-3.9,0.5c-0.8,0-1.6-0.1-2.3-0.2s-1.2-0.4-1.6-0.6c-0.3,0.3-0.5,0.6-0.7,0.9s-0.3,0.7-0.3,1.1c0,0.2,0.1,0.5,0.2,0.8
		s0.3,0.5,0.6,0.7s0.5,0.4,0.9,0.5s0.7,0.2,1.1,0.2l5.6,0.2c1.3,0,2.4,0.2,3.4,0.5s1.9,0.7,2.6,1.2s1.3,1.2,1.7,1.9s0.6,1.6,0.6,2.6
		c0,1.1-0.2,2.2-0.8,3.1s-1.3,1.8-2.3,2.6s-2.3,1.3-3.8,1.7s-3.2,0.6-5.2,0.6c-1.9,0-3.6-0.2-5-0.5s-2.5-0.7-3.4-1.3s-1.5-1.2-2-2
		s-0.6-1.6-0.6-2.5c0-0.5,0.1-1.1,0.2-1.5s0.4-0.9,0.6-1.3s0.6-0.8,1.1-1.3s0.9-0.8,1.5-1.2c-0.8-0.4-1.3-1-1.7-1.7
		s-0.6-1.4-0.6-2.2c0-0.5,0.1-1,0.2-1.5s0.3-0.9,0.6-1.3s0.5-0.8,0.8-1.2s0.6-0.8,0.9-1.1c-0.6-0.6-1.1-1.3-1.4-2.1
		s-0.6-1.8-0.6-3.1c0-1.3,0.2-2.5,0.7-3.6s1.1-1.9,2-2.6s1.8-1.2,3-1.6s2.4-0.6,3.8-0.6c0.7,0,1.4,0,2,0.1s1.2,0.2,1.8,0.4h8.2V15
		H334.7z M321.2,37.8c0,0.9,0.5,1.6,1.4,2s2.2,0.7,3.9,0.7c1.1,0,2-0.1,2.7-0.3s1.3-0.5,1.8-0.8s0.8-0.7,1-1.1s0.3-0.9,0.3-1.4
		c0-0.4-0.1-0.8-0.3-1.1s-0.5-0.5-0.8-0.7s-0.8-0.3-1.2-0.4s-1-0.2-1.6-0.2l-5-0.1c-0.5,0.3-0.8,0.6-1.1,0.9s-0.5,0.6-0.7,0.8
		s-0.3,0.6-0.3,0.8S321.2,37.5,321.2,37.8z M322.2,18.7c0,1.3,0.4,2.3,1.1,3s1.8,1.1,3.1,1.1c0.7,0,1.3-0.1,1.8-0.4s1-0.5,1.3-0.9
		s0.6-0.8,0.8-1.4s0.3-1.1,0.3-1.6c0-1.3-0.4-2.4-1.1-3.1s-1.8-1.1-3.1-1.1c-0.7,0-1.3,0.1-1.8,0.4s-1,0.6-1.3,0.9s-0.6,0.9-0.8,1.4
		S322.2,18.1,322.2,18.7z"/>
	<path fill="#3AA148" d="M350.9,15.3h-6.7v-4.5h12.6v19.4h6.9v4.5h-20.3v-4.5h7.5V15.3z M357.2,4.3c0,0.5-0.1,1-0.3,1.5
		s-0.4,0.8-0.8,1.2s-0.7,0.6-1.2,0.8S354,8,353.5,8s-1-0.1-1.5-0.3s-0.9-0.5-1.2-0.8s-0.6-0.7-0.8-1.2s-0.3-0.9-0.3-1.5
		s0.1-1,0.3-1.5s0.4-0.9,0.8-1.2s0.7-0.6,1.2-0.8s1-0.3,1.5-0.3s1,0.1,1.5,0.3s0.8,0.5,1.2,0.8s0.6,0.7,0.8,1.2S357.2,3.8,357.2,4.3
		z"/>
	<path fill="#3AA148" d="M389.2,34.4c-1,0.2-2.1,0.4-3.1,0.6s-2,0.2-3,0.2c-1.6,0-2.9-0.2-4-0.5s-2.1-0.8-2.8-1.5s-1.3-1.5-1.6-2.6
		s-0.5-2.3-0.5-3.7V15.3h-6.4v-4.5h6.4V4.7l5.9-1.5v7.6h9.3v4.5H380v11.2c0,1.4,0.3,2.4,0.9,3.1s1.7,1,3.1,1c0.9,0,1.9-0.1,2.7-0.2
		s1.7-0.3,2.4-0.5V34.4z"/>
	<path fill="#3AA148" d="M410.9,34.6l-0.1-3.1c-0.5,0.5-1,1-1.6,1.5s-1.1,0.8-1.8,1.2s-1.4,0.6-2.1,0.8s-1.6,0.3-2.5,0.3
		c-1.2,0-2.3-0.2-3.2-0.5s-1.7-0.9-2.3-1.5s-1.1-1.4-1.4-2.3s-0.5-1.9-0.5-3c0-1.1,0.2-2.2,0.7-3.1s1.2-1.8,2.2-2.5s2.2-1.2,3.7-1.6
		S405,20,407,20h3.1v-1.4c0-0.6-0.1-1.2-0.3-1.7s-0.4-0.9-0.8-1.3s-0.9-0.6-1.5-0.8s-1.4-0.3-2.2-0.3c-1.4,0-2.8,0.2-4.2,0.5
		s-2.7,0.8-4,1.3v-4.6c1.1-0.5,2.5-0.8,3.9-1.1s3-0.4,4.7-0.4c1.8,0,3.3,0.2,4.5,0.5s2.3,0.8,3.1,1.5s1.4,1.5,1.8,2.5
		s0.6,2.2,0.6,3.5v16.3H410.9z M410.1,24.1h-3.5c-1,0-1.8,0.1-2.5,0.3s-1.2,0.4-1.6,0.8s-0.7,0.7-0.9,1.1s-0.3,0.9-0.3,1.4
		c0,1,0.3,1.7,0.9,2.2s1.5,0.8,2.6,0.8c0.8,0,1.6-0.3,2.5-0.9s1.8-1.4,2.8-2.5V24.1z"/>
	<path fill="#3AA148" d="M430.1,6h-6.7V1.5h12.6v28.7h6.9v4.5h-20.3v-4.5h7.5V6z"/>
	<path fill="#12171A" d="M456.3,10.5c0.6,0,1.1,0.1,1.7,0.3s1,0.5,1.3,0.9s0.7,0.8,0.9,1.3s0.3,1.1,0.3,1.6c0,0.6-0.1,1.1-0.3,1.7
		s-0.5,1-0.9,1.3s-0.8,0.7-1.3,0.9s-1.1,0.3-1.7,0.3s-1.1-0.1-1.7-0.3s-1-0.5-1.3-0.9s-0.7-0.8-0.9-1.3s-0.3-1.1-0.3-1.7
		c0-0.6,0.1-1.1,0.3-1.6s0.5-1,0.9-1.3s0.8-0.7,1.3-0.9S455.7,10.5,456.3,10.5z M456.3,26.6c0.6,0,1.1,0.1,1.7,0.3s1,0.5,1.3,0.9
		s0.7,0.8,0.9,1.3s0.3,1.1,0.3,1.6c0,0.6-0.1,1.1-0.3,1.7s-0.5,1-0.9,1.3s-0.8,0.7-1.3,0.9s-1.1,0.3-1.7,0.3s-1.1-0.1-1.7-0.3
		s-1-0.5-1.3-0.9s-0.7-0.8-0.9-1.3s-0.3-1.1-0.3-1.7c0-0.6,0.1-1.1,0.3-1.6s0.5-1,0.9-1.3s0.8-0.7,1.3-0.9S455.7,26.6,456.3,26.6z"
		/>
	<path fill="#12171A" d="M472.5,0c3.8,3.2,6.7,6.6,8.6,10.3s2.8,7.7,2.8,11.9c0,2.4-0.3,4.6-0.8,6.7s-1.3,4.1-2.4,6
		s-2.2,3.6-3.6,5.3s-3,3.2-4.6,4.6l-3.3-3.3c3.1-2.7,5.4-5.7,6.9-8.9s2.3-6.5,2.3-10c0-3.5-0.8-6.9-2.3-10.2s-3.8-6.3-6.9-9L472.5,0
		z"/>
</g>
</svg>
